<?xml version="1.0" encoding="utf-8"?>
<!-- Generator: Adobe Illustrator 29.5.0, SVG Export Plug-In . SVG Version: 9.03 Build 0)  -->
<svg version="1.0" id="Layer_1" xmlns="http://www.w3.org/2000/svg" xmlns:xlink="http://www.w3.org/1999/xlink" x="0px" y="0px"
	 viewBox="0 0 882.4 336.5" style="enable-background:new 0 0 882.4 336.5;" xml:space="preserve">
<style type="text/css">
	.st0{enable-background:new    ;}
	.st1{fill:#3BB5A1;}
</style>
<g>
	<g class="st0">
		<path class="st1" d="M78.4,126.8v48h-29v-143h55.5c33.7,0,50.5,15.7,50.5,47.1c0,18.7-7,32.4-21,41.2l20.4,54.7H123l-16.6-48H78.4
			z M120.7,95.6c3.4-4.2,5-9.7,5-16.6c0-6.9-1.8-12.3-5.4-16.4c-3.6-4.1-8.7-6.1-15.5-6.1H78.4V102h26.9
			C112.2,102,117.3,99.8,120.7,95.6z"/>
		<path class="st1" d="M278.7,159.5c-8.9,11.9-24.2,17.8-46,17.8c-21.7,0-37.1-5.9-46-17.8c-8.9-11.8-13.4-30.4-13.4-55.6
			c0-25.2,4.4-44,13.4-56.3c8.9-12.3,24.2-18.4,46-18.4c21.7,0,37.1,6.1,46,18.4c8.9,12.3,13.4,31,13.4,56.3
			C292.1,129.1,287.6,147.6,278.7,159.5z M209.5,141c4.1,7.4,11.9,11,23.2,11c11.4,0,19.1-3.7,23.2-11c4.1-7.4,6.2-19.7,6.2-37
			c0-17.3-2.1-29.9-6.3-37.8c-4.2-7.9-11.9-11.8-23.1-11.8c-11.2,0-18.9,3.9-23.1,11.8c-4.2,7.9-6.3,20.4-6.3,37.8
			C203.3,121.3,205.4,133.6,209.5,141z"/>
		<path class="st1" d="M398.3,174.7h-81.4v-143h29v117.4h52.4V174.7z"/>
		<path class="st1" d="M497.6,174.7h-81.4v-143h29v117.4h52.4V174.7z"/>
		<path class="st1" d="M515.5,174.7v-143h29v143H515.5z"/>
		<path class="st1" d="M575.6,174.7v-143h49l34.5,117.8h2.1V31.7h29v143h-47.7L606.8,56.9h-2.1v117.8H575.6z"/>
		<path class="st1" d="M780.9,123.4V98.2h41.6v74.2c-20.1,3.2-36.3,4.8-48.8,4.8c-22.3,0-37.6-6-46-17.9
			c-8.3-11.9-12.5-30.8-12.5-56.8c0-25.9,4.3-44.7,13-56.2c8.7-11.5,23.5-17.2,44.4-17.2c13,0,27.1,1.5,42.3,4.4l7.6,1.5l-0.8,22.5
			c-16.8-1.8-30.6-2.7-41.3-2.7c-10.7,0-18.3,1.3-22.6,3.8c-4.3,2.5-7.5,7.2-9.6,14c-2,6.8-3,18.4-3,34.9c0,16.5,2,28,6.1,34.6
			c4.1,6.6,12.5,9.9,25.2,9.9l17.5-0.8v-27.8H780.9z"/>
	</g>
	<g class="st0">
		<path class="st1" d="M101.3,210.6h8.8l-25.9,96.7h-21l-26-96.7H46l23.5,89.1h8.2L101.3,210.6z"/>
		<path class="st1" d="M125.9,307.3v-96.7h58v7.8h-49.4v35.9h41.1v7.7h-41.1v37.7H184v7.7H125.9z"/>
		<path class="st1" d="M192.5,218.4v-7.8h69.6v7.8h-30.3v88.9h-8.6v-88.9H192.5z"/>
		<path class="st1" d="M276,307.3v-96.7h58v7.8h-49.4v35.9h41.1v7.7h-41.1v37.7H334v7.7H276z"/>
		<path class="st1" d="M361.4,269.2v38.1h-8.6v-96.7h35.5c10.1,0,17.7,2.3,22.6,6.9c5,4.6,7.4,11.9,7.4,21.8
			c0,15.5-6.2,24.9-18.7,28.3l19.9,39.8H410l-19.1-38.1H361.4z M409.5,239.4c0-7.2-1.7-12.6-5.1-16c-3.4-3.4-8.8-5.2-16-5.2h-26.9
			v43.3h26.9C402.4,261.5,409.5,254.2,409.5,239.4z"/>
		<path class="st1" d="M438.4,307.3v-96.7h8.6v96.7H438.4z"/>
		<path class="st1" d="M465.1,307.3v-96.7h17l40.5,89.1h3.2v-89.1h8.5v96.7h-16.7l-40.8-88.9h-3.1v88.9H465.1z"/>
		<path class="st1" d="M550,307.3l27.8-96.7H598l27.7,96.7h-8.5l-7.8-26.7h-43.2l-7.7,26.7H550z M584.1,218.1L568.4,273h39
			l-15.7-54.8H584.1z"/>
		<path class="st1" d="M650,269.2v38.1h-8.6v-96.7h35.5c10.1,0,17.7,2.3,22.6,6.9c5,4.6,7.4,11.9,7.4,21.8
			c0,15.5-6.2,24.9-18.7,28.3l19.9,39.8h-9.6l-19.1-38.1H650z M698,239.4c0-7.2-1.7-12.6-5.1-16c-3.4-3.4-8.8-5.2-16-5.2H650v43.3
			h26.9C690.9,261.5,698,254.2,698,239.4z"/>
		<path class="st1" d="M726.9,307.3v-96.7h8.6v96.7H726.9z"/>
		<path class="st1" d="M751.2,307.3l27.8-96.7h20.2l27.7,96.7h-8.5l-7.8-26.7h-43.2l-7.7,26.7H751.2z M785.3,218.1L769.5,273h39
			l-15.7-54.8H785.3z"/>
	</g>
</g>
</svg>
